<?xml version="1.0" encoding="UTF-8" standalone="no"?>
<!-- Created with Inkscape (http://www.inkscape.org/) -->

<svg
   xmlns:dc="http://purl.org/dc/elements/1.1/"
   xmlns:cc="http://creativecommons.org/ns#"
   xmlns:rdf="http://www.w3.org/1999/02/22-rdf-syntax-ns#"
   xmlns:svg="http://www.w3.org/2000/svg"
   xmlns="http://www.w3.org/2000/svg"
   xmlns:sodipodi="http://sodipodi.sourceforge.net/DTD/sodipodi-0.dtd"
   xmlns:inkscape="http://www.inkscape.org/namespaces/inkscape"
   width="360"
   height="156.73018"
   viewBox="0 0 95.249997 41.468198"
   version="1.1"
   id="svg8"
   inkscape:version="0.92.3 (2405546, 2018-03-11)"
   sodipodi:docname="HeaderLogoHsKA.svg">
  <title
     id="title3818">Logo HsKA und EIT</title>
  <defs
     id="defs2" />
  <sodipodi:namedview
     id="base"
     pagecolor="#ffffff"
     bordercolor="#666666"
     borderopacity="1.0"
     inkscape:pageopacity="0.0"
     inkscape:pageshadow="2"
     inkscape:zoom="1.4"
     inkscape:cx="1.2088235"
     inkscape:cy="-27.166038"
     inkscape:document-units="mm"
     inkscape:current-layer="layer1"
     showgrid="false"
     inkscape:window-width="1920"
     inkscape:window-height="1017"
     inkscape:window-x="-8"
     inkscape:window-y="-8"
     inkscape:window-maximized="1"
     fit-margin-top="0"
     fit-margin-left="0"
     fit-margin-right="0"
     fit-margin-bottom="0"
     units="px" />
  <metadata
     id="metadata5">
    <rdf:RDF>
      <cc:Work
         rdf:about="">
        <dc:format>image/svg+xml</dc:format>
        <dc:type
           rdf:resource="http://purl.org/dc/dcmitype/StillImage" />
        <dc:title>Logo HsKA und EIT</dc:title>
      </cc:Work>
    </rdf:RDF>
  </metadata>
  <g
     inkscape:label="Ebene 1"
     inkscape:groupmode="layer"
     id="layer1"
     transform="translate(-13.499995,-221.54278)">
    <g
       id="g3816"
       transform="matrix(0.24056032,0,0,0.24056032,13.499995,221.54278)">
      <path
         id="path3796"
         d="m 123.34,31.342 h -10.542 v 1.81 h 4.076 v 13.784 h 2.155 V 33.153 h 4.07 l 0.236,-1.81 m 7,8.827 h -4.734 c 0,-1.04 0.196,-1.856 0.595,-2.447 0.4,-0.59 0.997,-0.89 1.79,-0.902 0.367,0.01 0.69,0.086 0.955,0.23 0.274,0.147 0.5,0.336 0.69,0.567 0.227,0.286 0.4,0.648 0.517,1.084 0.124,0.435 0.187,0.927 0.187,1.473 m 2.18,1.54 v -0.362 c 0,-1.28 -0.11,-2.29 -0.322,-3.037 -0.21,-0.748 -0.572,-1.365 -1.065,-1.85 -0.79,-0.815 -1.826,-1.223 -3.095,-1.223 -0.706,-0.004 -1.34,0.123 -1.905,0.38 -0.563,0.254 -1.073,0.647 -1.527,1.177 a 5.176,5.176 0 0 0 -1.05,1.89 c -0.22,0.695 -0.322,1.528 -0.322,2.5 0.02,1.874 0.47,3.338 1.367,4.39 0.893,1.054 2.14,1.59 3.738,1.608 0.745,0 1.443,-0.12 2.11,-0.36 a 5.76,5.76 0 0 0 1.825,-1.09 l -0.79,-1.243 a 4.338,4.338 0 0 1 -1.31,0.814 4.01,4.01 0 0 1 -1.49,0.272 3.322,3.322 0 0 1 -1.496,-0.33 2.825,2.825 0 0 1 -1.12,-1.01 2.73,2.73 0 0 1 -0.368,-0.97 5.897,5.897 0 0 1 -0.11,-1.292 v -0.273 h 6.937 m 10.677,3.983 -1.02,-1.29 c -0.343,0.386 -0.72,0.68 -1.127,0.878 -0.4,0.198 -0.815,0.298 -1.238,0.3 a 2.35,2.35 0 0 1 -0.917,-0.18 2.107,2.107 0 0 1 -0.72,-0.5 c -0.3,-0.314 -0.526,-0.738 -0.683,-1.273 -0.157,-0.532 -0.235,-1.194 -0.235,-1.984 0,-0.78 0.045,-1.455 0.13,-2.027 0.087,-0.577 0.228,-1.055 0.417,-1.438 0.185,-0.37 0.47,-0.683 0.823,-0.9 a 2.274,2.274 0 0 1 1.184,-0.32 c 0.353,-0.003 0.682,0.06 0.988,0.196 0.313,0.135 0.65,0.364 1.01,0.687 l 1.097,-1.425 a 4.562,4.562 0 0 0 -1.416,-0.9 4.596,4.596 0 0 0 -1.685,-0.302 c -0.564,0 -1.09,0.1 -1.583,0.296 a 4.677,4.677 0 0 0 -1.38,0.857 c -0.557,0.476 -1.01,1.11 -1.364,1.908 -0.353,0.797 -0.533,1.83 -0.55,3.095 0,0.857 0.087,1.62 0.267,2.294 0.167,0.645 0.448,1.255 0.83,1.8 0.8,1.133 2.02,1.698 3.66,1.698 0.717,0.006 1.35,-0.106 1.89,-0.336 0.55,-0.23 1.084,-0.61 1.617,-1.137 m 11.202,1.253 v -8.08 c 0.006,-0.49 -0.01,-0.857 -0.05,-1.103 a 2.91,2.91 0 0 0 -0.18,-0.73 c -0.18,-0.517 -0.53,-0.926 -1.056,-1.23 -0.517,-0.305 -1.12,-0.46 -1.81,-0.468 -0.416,0 -0.83,0.06 -1.24,0.18 -0.407,0.124 -0.822,0.32 -1.237,0.59 a 8.058,8.058 0 0 0 -1.208,0.924 c 0.023,-0.294 0.04,-0.57 0.047,-0.825 0.015,-0.256 0.015,-0.485 0.015,-0.69 V 32.97 c 0,-0.552 -0.014,-1.044 -0.06,-1.474 -0.04,-0.43 -0.1,-0.814 -0.188,-1.15 l -2.116,0.43 c 0.08,0.324 0.14,0.68 0.187,1.068 0.04,0.387 0.063,0.823 0.063,1.307 v 13.787 h 2.116 V 38.79 c 0.455,-0.515 0.95,-0.918 1.482,-1.21 0.533,-0.29 1.05,-0.44 1.552,-0.444 0.274,0.004 0.525,0.047 0.752,0.13 0.225,0.083 0.39,0.183 0.492,0.3 0.117,0.126 0.21,0.322 0.282,0.59 0.07,0.265 0.11,0.597 0.11,0.994 v 7.784 h 2.045 m 12.48,0.002 V 38.36 c 0,-0.26 -0.024,-0.515 -0.07,-0.756 a 3.648,3.648 0 0 0 -0.205,-0.67 c -0.216,-0.49 -0.58,-0.9 -1.043,-1.17 -0.5,-0.29 -1.068,-0.44 -1.646,-0.438 a 4.295,4.295 0 0 0 -2.116,0.566 c -0.232,0.137 -0.456,0.29 -0.67,0.455 -0.22,0.17 -0.487,0.39 -0.808,0.656 0,-0.344 -0.03,-0.654 -0.084,-0.93 a 3.63,3.63 0 0 0 -0.298,-0.812 l -1.983,0.546 c 0.156,0.385 0.274,0.766 0.337,1.144 0.063,0.38 0.095,0.894 0.095,1.55 v 8.442 h 2.075 v -8.4 c 0.4,-0.417 0.87,-0.76 1.388,-1.03 0.525,-0.27 1,-0.41 1.434,-0.42 0.26,0 0.494,0.04 0.69,0.117 0.184,0.067 0.346,0.183 0.47,0.334 0.134,0.168 0.228,0.376 0.283,0.626 0.055,0.247 0.086,0.62 0.078,1.115 v 7.65 h 2.077 m 6.568,-14.825 c -0.016,-0.44 -0.157,-0.8 -0.447,-1.08 -0.28,-0.282 -0.66,-0.44 -1.058,-0.437 -0.396,0 -0.774,0.16 -1.05,0.444 -0.274,0.285 -0.416,0.642 -0.43,1.072 0.006,0.415 0.147,0.77 0.422,1.05 0.273,0.282 0.62,0.43 1.033,0.44 0.43,-0.01 0.79,-0.16 1.08,-0.44 a 1.5,1.5 0 0 0 0.45,-1.05 m -0.432,14.822 v -11.61 l -2.163,0.34 v 11.27 h 2.164 m 13.6,0.002 -5.07,-6.54 4.07,-4.82 h -2.55 l -3.754,4.91 4.687,6.45 h 2.62 m -7.532,0 v -14.12 c -0.008,-0.837 -0.1,-1.67 -0.27,-2.49 l -2.117,0.498 c 0.095,0.323 0.166,0.69 0.22,1.104 0.05,0.413 0.08,0.905 0.08,1.476 v 13.534 h 2.092 m 23.42,-0.748 c -0.227,-0.196 -0.407,-0.49 -0.524,-0.89 -0.117,-0.398 -0.18,-0.886 -0.18,-1.465 V 35.3 l -2.07,0.41 v 8.147 a 3.395,3.395 0 0 1 -1.097,1.266 c -0.47,0.335 -0.972,0.508 -1.504,0.52 a 2.1,2.1 0 0 1 -1.32,-0.497 1.396,1.396 0 0 1 -0.413,-0.71 c -0.076,-0.29 -0.11,-0.72 -0.11,-1.283 v -7.9 l -2.067,0.407 v 8.06 c 0,0.408 0.017,0.77 0.063,1.087 0.04,0.32 0.11,0.59 0.21,0.817 0.243,0.526 0.635,0.94 1.17,1.24 0.53,0.3 1.166,0.452 1.903,0.458 0.704,0 1.34,-0.133 1.903,-0.4 0.57,-0.267 1.08,-0.677 1.527,-1.23 0.103,0.377 0.235,0.692 0.4,0.942 0.172,0.25 0.392,0.48 0.674,0.688 l 1.434,-1.134 m 11.61,0.744 v -8.578 c 0,-0.26 -0.022,-0.514 -0.07,-0.755 a 2.664,2.664 0 0 0 -0.204,-0.67 2.497,2.497 0 0 0 -1.043,-1.17 c -0.48,-0.286 -1.027,-0.43 -1.646,-0.44 a 4.306,4.306 0 0 0 -2.116,0.567 c -0.232,0.136 -0.453,0.29 -0.664,0.456 -0.22,0.17 -0.496,0.39 -0.81,0.656 a 4.09,4.09 0 0 0 -0.095,-0.93 3.272,3.272 0 0 0 -0.298,-0.813 l -1.976,0.543 c 0.157,0.386 0.268,0.767 0.33,1.145 0.07,0.38 0.103,0.895 0.103,1.55 v 8.443 h 2.07 v -8.4 c 0.406,-0.417 0.87,-0.76 1.395,-1.03 0.525,-0.27 0.994,-0.41 1.426,-0.42 0.267,0 0.494,0.04 0.69,0.117 0.203,0.076 0.36,0.19 0.47,0.336 0.133,0.17 0.235,0.378 0.29,0.628 0.054,0.246 0.08,0.62 0.08,1.114 v 7.65 h 2.068 m 10.617,-2.874 c -0.197,0.35 -0.494,0.654 -0.9,0.91 -0.4,0.255 -0.91,0.39 -1.515,0.4 -0.384,0 -0.714,-0.045 -0.987,-0.14 a 1.752,1.752 0 0 1 -0.7,-0.447 c -0.305,-0.284 -0.524,-0.663 -0.674,-1.135 -0.14,-0.475 -0.21,-1.244 -0.21,-2.307 0,-0.727 0.038,-1.34 0.133,-1.833 0.092,-0.496 0.24,-0.925 0.46,-1.29 0.212,-0.366 0.493,-0.65 0.822,-0.85 0.337,-0.2 0.72,-0.3 1.152,-0.305 0.533,0 0.996,0.09 1.388,0.27 0.4,0.18 0.75,0.452 1.026,0.792 v 5.93 m 2.438,2.874 c -0.125,-0.35 -0.203,-0.845 -0.25,-1.478 a 32.213,32.213 0 0 1 -0.07,-2.325 V 30.64 l -2.094,-0.34 v 4.413 c 0,0.4 0.008,0.79 0.023,1.165 0.016,0.377 0.023,0.652 0.023,0.826 -0.384,-0.46 -0.807,-0.796 -1.27,-1 a 3.527,3.527 0 0 0 -1.505,-0.308 c -0.406,0 -0.8,0.05 -1.16,0.158 -0.367,0.107 -0.72,0.273 -1.072,0.498 -0.777,0.504 -1.373,1.21 -1.78,2.116 -0.407,0.906 -0.61,1.973 -0.61,3.202 0.007,1.804 0.414,3.21 1.214,4.215 0.808,1.01 1.937,1.517 3.41,1.533 a 4.057,4.057 0 0 0 1.614,-0.308 c 0.5,-0.215 0.95,-0.535 1.317,-0.937 0.03,0.27 0.062,0.477 0.086,0.617 0.023,0.14 0.07,0.29 0.12,0.448 h 2.01 m 24.897,-15.596 h -2.272 l -1.662,7.9 a 73.9,73.9 0 0 0 -0.36,1.806 c -0.126,0.66 -0.236,1.28 -0.33,1.86 -0.1,0.58 -0.173,1.026 -0.22,1.336 h -0.14 a 24.085,24.085 0 0 0 -0.157,-1.11 c -0.078,-0.504 -0.18,-1.065 -0.29,-1.686 a 81.384,81.384 0 0 0 -0.368,-1.82 l -1.803,-8.284 h -2.524 l -1.825,8.24 c -0.182,0.87 -0.352,1.743 -0.51,2.618 -0.14,0.837 -0.26,1.54 -0.353,2.11 h -0.133 c -0.08,-0.49 -0.18,-1.15 -0.308,-1.983 a 55.597,55.597 0 0 0 -0.54,-2.95 l -1.733,-8.04 h -2.368 l 3.715,15.634 h 2.707 l 1.686,-7.943 c 0.18,-0.837 0.338,-1.675 0.486,-2.51 0.15,-0.838 0.25,-1.47 0.313,-1.9 h 0.133 c 0.063,0.484 0.157,1.116 0.29,1.894 0.134,0.78 0.306,1.65 0.51,2.61 l 1.732,7.852 h 2.68 l 3.645,-15.638 m 4.67,0.77 c -0.01,-0.44 -0.157,-0.8 -0.44,-1.08 a 1.5,1.5 0 0 0 -1.058,-0.438 c -0.396,0 -0.774,0.16 -1.05,0.444 a 1.53,1.53 0 0 0 -0.43,1.072 c 0.007,0.417 0.147,0.77 0.42,1.05 0.268,0.284 0.612,0.43 1.036,0.443 0.43,-0.01 0.79,-0.16 1.072,-0.44 a 1.45,1.45 0 0 0 0.446,-1.05 m -0.43,14.82 V 35.32 l -2.164,0.34 v 11.27 h 2.162 m 9.75,-11.583 a 1.62,1.62 0 0 0 -0.32,-0.08 2.164,2.164 0 0 0 -0.385,-0.034 2.997,2.997 0 0 0 -1.662,0.492 c -0.5,0.326 -0.98,0.82 -1.433,1.475 V 37 a 5.24,5.24 0 0 0 -0.12,-0.92 4.09,4.09 0 0 0 -0.274,-0.82 l -2.02,0.52 c 0.14,0.34 0.243,0.724 0.32,1.16 0.072,0.434 0.11,0.99 0.11,1.67 v 8.327 h 2.094 v -7.31 c 0.023,-0.64 0.26,-1.182 0.706,-1.622 a 2.4,2.4 0 0 1 1.662,-0.687 c 0.116,0 0.22,0.01 0.305,0.03 0.095,0.02 0.19,0.048 0.29,0.082 l 0.73,-2.082 m 7.228,0.252 h -2.775 c 0,-0.596 0.024,-1.204 0.07,-1.825 0.04,-0.622 0.088,-1.144 0.135,-1.568 l -2.164,0.498 c -0.055,0.44 -0.094,0.922 -0.11,1.44 -0.02,0.518 -0.02,1 -0.02,1.457 h -1.374 v 1.47 h 1.373 v 7.31 c 0,0.792 0.087,1.33 0.235,1.613 0.154,0.283 0.36,0.515 0.602,0.696 0.198,0.177 0.474,0.31 0.825,0.41 0.353,0.106 0.73,0.16 1.113,0.16 a 4.564,4.564 0 0 0 2.07,-0.475 l -0.25,-1.266 a 2.543,2.543 0 0 1 -1.066,0.226 c -0.565,0.01 -0.95,-0.12 -1.17,-0.39 -0.22,-0.27 -0.322,-0.753 -0.314,-1.443 v -6.835 h 2.258 l 0.563,-1.47 m 10.318,7.846 c 0.02,-0.72 -0.23,-1.42 -0.697,-1.965 -0.47,-0.556 -1.222,-0.957 -2.264,-1.203 l -1.473,-0.34 c -0.596,-0.132 -1.02,-0.32 -1.262,-0.565 -0.25,-0.245 -0.366,-0.57 -0.36,-0.974 0.01,-0.516 0.19,-0.926 0.54,-1.23 0.355,-0.304 0.83,-0.46 1.444,-0.467 0.446,0.003 0.9,0.073 1.348,0.213 0.455,0.14 0.934,0.34 1.45,0.602 l 0.705,-1.47 c -0.47,-0.274 -1.01,-0.5 -1.62,-0.666 a 7.54,7.54 0 0 0 -1.976,-0.26 c -1.245,0.016 -2.24,0.344 -2.977,0.983 -0.738,0.64 -1.12,1.49 -1.137,2.547 0,0.84 0.244,1.53 0.715,2.064 0.47,0.536 1.16,0.896 2.06,1.08 l 1.39,0.273 c 0.657,0.123 1.144,0.33 1.45,0.62 0.312,0.296 0.47,0.684 0.46,1.17 -0.007,0.56 -0.203,1.01 -0.587,1.33 -0.385,0.328 -0.893,0.494 -1.528,0.5 a 5.954,5.954 0 0 1 -1.897,-0.335 10.596,10.596 0 0 1 -1.77,-0.795 l -0.746,1.492 a 9.05,9.05 0 0 0 2.104,0.89 c 0.7,0.2 1.426,0.304 2.154,0.31 1.35,-0.018 2.43,-0.37 3.237,-1.053 0.806,-0.685 1.222,-1.602 1.245,-2.75 m 10.54,2.237 -1.025,-1.29 c -0.314,0.36 -0.693,0.66 -1.12,0.877 -0.41,0.2 -0.825,0.3 -1.247,0.3 a 2.305,2.305 0 0 1 -0.91,-0.18 2.074,2.074 0 0 1 -0.73,-0.5 c -0.296,-0.313 -0.523,-0.737 -0.673,-1.272 -0.157,-0.534 -0.235,-1.196 -0.235,-1.986 0,-0.78 0.036,-1.455 0.123,-2.027 0.086,-0.574 0.227,-1.052 0.422,-1.435 a 2.17,2.17 0 0 1 0.823,-0.9 2.23,2.23 0 0 1 1.177,-0.322 c 0.36,-0.003 0.69,0.06 0.996,0.196 0.305,0.134 0.643,0.363 1.01,0.686 l 1.09,-1.425 a 4.53,4.53 0 0 0 -1.41,-0.897 4.537,4.537 0 0 0 -1.686,-0.303 4.33,4.33 0 0 0 -2.954,1.152 c -0.566,0.475 -1.02,1.11 -1.374,1.907 -0.355,0.795 -0.536,1.83 -0.544,3.093 a 8.874,8.874 0 0 0 0.26,2.294 c 0.166,0.646 0.447,1.256 0.83,1.8 0.8,1.134 2.02,1.7 3.67,1.7 0.713,0.005 1.34,-0.107 1.89,-0.337 0.54,-0.23 1.08,-0.61 1.613,-1.136 m 11.2,1.253 v -8.08 c 0,-0.49 -0.017,-0.857 -0.048,-1.103 a 3.528,3.528 0 0 0 -0.18,-0.73 c -0.19,-0.517 -0.54,-0.926 -1.06,-1.23 -0.525,-0.305 -1.128,-0.46 -1.812,-0.468 -0.423,0 -0.838,0.06 -1.246,0.18 a 5.05,5.05 0 0 0 -1.235,0.59 c -0.22,0.14 -0.418,0.273 -0.592,0.403 -0.17,0.13 -0.375,0.304 -0.62,0.52 0.026,-0.292 0.04,-0.57 0.057,-0.823 0.007,-0.256 0.015,-0.485 0.015,-0.69 v -2.54 c 0,-0.552 -0.023,-1.044 -0.07,-1.474 a 8.596,8.596 0 0 0 -0.18,-1.15 l -2.117,0.43 c 0.078,0.324 0.14,0.68 0.18,1.068 0.048,0.387 0.07,0.823 0.07,1.307 v 13.787 h 2.117 V 38.79 c 0.42,-0.487 0.92,-0.896 1.48,-1.21 0.534,-0.29 1.05,-0.44 1.545,-0.444 0.282,0.004 0.533,0.047 0.752,0.13 0.227,0.083 0.39,0.183 0.5,0.3 0.12,0.126 0.213,0.322 0.275,0.59 0.07,0.265 0.11,0.597 0.11,0.994 v 7.784 h 2.054 m 9.572,-5.564 -0.06,2.898 a 3.25,3.25 0 0 1 -1.036,1.086 c -0.404,0.26 -0.875,0.4 -1.355,0.407 -0.59,0 -1.037,-0.173 -1.34,-0.515 -0.308,-0.34 -0.457,-0.824 -0.465,-1.45 0,-0.365 0.047,-0.67 0.133,-0.92 a 2.26,2.26 0 0 1 0.463,-0.733 c 0.22,-0.263 0.58,-0.463 1.074,-0.604 0.485,-0.14 1.12,-0.21 1.904,-0.21 0.086,0 0.188,0.004 0.29,0.013 0.11,0.008 0.235,0.02 0.39,0.03 m 2.965,4.64 c -0.43,-0.254 -0.696,-0.584 -0.798,-0.99 -0.11,-0.402 -0.15,-0.986 -0.134,-1.75 0,-0.846 0.017,-1.653 0.048,-2.42 0.023,-0.763 0.04,-1.36 0.04,-1.79 0.007,-0.536 -0.01,-0.944 -0.04,-1.223 a 3.222,3.222 0 0 0 -0.188,-0.767 c -0.22,-0.6 -0.62,-1.053 -1.186,-1.356 -0.572,-0.303 -1.277,-0.455 -2.117,-0.456 -1.098,0.023 -2.03,0.192 -2.8,0.51 -0.767,0.316 -1.433,0.644 -1.98,0.983 l 0.955,1.496 a 7.06,7.06 0 0 1 1.653,-0.908 c 0.592,-0.24 1.22,-0.37 1.858,-0.383 0.77,0.01 1.262,0.216 1.48,0.62 0.22,0.403 0.314,0.943 0.29,1.62 v 0.747 c -0.14,-0.01 -0.28,-0.016 -0.406,-0.02 -0.128,0 -0.25,-0.002 -0.394,0 -1.85,0.002 -3.277,0.346 -4.28,1.03 -1,0.68 -1.513,1.68 -1.52,2.997 0.007,1.087 0.336,1.914 0.987,2.477 0.65,0.563 1.552,0.846 2.695,0.85 0.66,-0.013 1.217,-0.116 1.655,-0.308 0.447,-0.194 0.8,-0.407 1.05,-0.64 0.26,-0.233 0.44,-0.416 0.533,-0.548 0.133,0.395 0.338,0.732 0.596,1.01 0.267,0.273 0.572,0.48 0.926,0.62 l 1.072,-1.405 m 8.892,-14.976 a 3.92,3.92 0 0 0 -1.16,-0.47 c -0.435,-0.1 -0.88,-0.147 -1.325,-0.142 a 4.647,4.647 0 0 0 -1.144,0.125 2.77,2.77 0 0 0 -0.922,0.416 c -0.32,0.21 -0.61,0.54 -0.87,1 -0.25,0.454 -0.39,1.064 -0.406,1.83 v 0.5 c 0.007,0.255 0.007,0.52 0.015,0.78 0.008,0.26 0.016,0.44 0.03,0.53 h -1.112 v 1.47 h 1.09 v 9.87 h 2.117 v -9.87 h 2.46 l 0.55,-1.47 h -3.03 v -1.835 c 0.006,-0.58 0.14,-1.026 0.406,-1.338 0.267,-0.313 0.643,-0.47 1.12,-0.473 0.26,0.002 0.51,0.043 0.753,0.12 0.234,0.08 0.48,0.183 0.73,0.31 l 0.703,-1.358 m 6.105,4.57 h -2.78 c 0.007,-0.596 0.02,-1.204 0.07,-1.825 0.038,-0.62 0.085,-1.143 0.132,-1.567 l -2.164,0.498 c -0.055,0.44 -0.086,0.923 -0.11,1.44 -0.015,0.52 -0.022,1 -0.022,1.458 h -1.362 v 1.47 h 1.365 v 7.31 c 0.008,0.79 0.086,1.33 0.243,1.612 0.155,0.282 0.35,0.514 0.595,0.695 0.196,0.174 0.47,0.31 0.823,0.41 0.362,0.104 0.736,0.156 1.113,0.158 0.752,0 1.44,-0.158 2.077,-0.476 l -0.25,-1.266 c -0.18,0.08 -0.362,0.138 -0.526,0.175 -0.17,0.035 -0.35,0.053 -0.546,0.052 -0.555,0.01 -0.947,-0.12 -1.167,-0.39 -0.21,-0.27 -0.32,-0.753 -0.313,-1.443 V 37.07 h 2.26 l 0.572,-1.47 M 124.56,24.3 V 8.713 h -2.195 v 6.404 h -5.95 V 8.712 h -2.154 v 15.592 h 2.16 v -7.4 h 5.95 v 7.4 h 2.194 m 11.26,-5.477 c -0.008,1.472 -0.236,2.54 -0.69,3.206 -0.447,0.665 -1.074,0.992 -1.873,0.98 -0.88,0.026 -1.544,-0.31 -1.983,-1.01 -0.44,-0.697 -0.66,-1.9 -0.66,-3.606 -0.007,-1.42 0.19,-2.467 0.597,-3.143 0.41,-0.674 1.06,-1.01 1.96,-1 0.824,-0.03 1.467,0.295 1.937,0.97 0.464,0.676 0.707,1.876 0.715,3.6 m 2.328,-0.09 c 0,-1.15 -0.18,-2.182 -0.548,-3.096 -0.362,-0.914 -0.91,-1.638 -1.647,-2.172 -0.737,-0.534 -1.67,-0.807 -2.783,-0.82 -1.512,0.02 -2.696,0.56 -3.55,1.614 -0.862,1.055 -1.3,2.51 -1.317,4.36 0.016,1.866 0.455,3.326 1.317,4.384 0.862,1.058 2.06,1.595 3.597,1.615 1.52,-0.02 2.72,-0.556 3.59,-1.598 0.88,-1.04 1.327,-2.472 1.34,-4.29 m 11.295,4.325 -1.02,-1.29 c -0.344,0.385 -0.72,0.68 -1.12,0.877 -0.4,0.198 -0.815,0.298 -1.238,0.3 a 2.312,2.312 0 0 1 -0.91,-0.18 2.16,2.16 0 0 1 -0.72,-0.5 c -0.29,-0.313 -0.52,-0.738 -0.668,-1.272 -0.158,-0.535 -0.236,-1.197 -0.236,-1.987 0,-0.78 0.04,-1.457 0.125,-2.03 0.086,-0.572 0.227,-1.05 0.415,-1.434 0.206,-0.387 0.47,-0.686 0.825,-0.9 0.344,-0.21 0.736,-0.32 1.167,-0.32 0.352,-0.004 0.682,0.06 0.987,0.194 0.305,0.134 0.642,0.363 1,0.686 l 1.09,-1.424 a 4.546,4.546 0 0 0 -1.404,-0.895 4.526,4.526 0 0 0 -1.676,-0.302 c -0.538,0 -1.07,0.1 -1.57,0.297 a 4.616,4.616 0 0 0 -1.37,0.857 c -0.558,0.475 -1.01,1.11 -1.357,1.908 -0.353,0.797 -0.533,1.83 -0.55,3.095 0,0.857 0.087,1.622 0.267,2.294 0.182,0.67 0.456,1.272 0.824,1.8 0.8,1.132 2.01,1.697 3.645,1.697 0.71,0.006 1.33,-0.106 1.88,-0.336 0.54,-0.23 1.073,-0.607 1.606,-1.135 m 11.7,1.244 v -8.08 c 0,-0.49 -0.015,-0.857 -0.046,-1.103 a 3.01,3.01 0 0 0 -0.18,-0.73 c -0.18,-0.515 -0.533,-0.925 -1.05,-1.23 -0.518,-0.303 -1.12,-0.46 -1.803,-0.465 -0.416,0 -0.83,0.06 -1.23,0.18 a 4.79,4.79 0 0 0 -1.23,0.59 c -0.22,0.14 -0.416,0.274 -0.59,0.404 -0.163,0.13 -0.375,0.306 -0.61,0.524 0.024,-0.295 0.04,-0.57 0.047,-0.825 0.015,-0.256 0.015,-0.485 0.015,-0.69 V 10.34 c 0,-0.552 -0.023,-1.043 -0.063,-1.473 a 8.96,8.96 0 0 0 -0.18,-1.152 l -2.11,0.43 c 0.08,0.325 0.14,0.682 0.18,1.07 0.046,0.386 0.07,0.823 0.07,1.306 v 13.787 h 2.1 V 16.16 c 0.455,-0.516 0.94,-0.92 1.474,-1.21 0.533,-0.29 1.042,-0.44 1.536,-0.443 0.284,0.003 0.527,0.047 0.754,0.13 0.22,0.082 0.384,0.182 0.494,0.3 0.118,0.124 0.212,0.32 0.282,0.588 0.062,0.267 0.1,0.6 0.1,0.995 v 7.784 h 2.04 m 12.32,-3.484 a 2.93,2.93 0 0 0 -0.69,-1.967 c -0.47,-0.555 -1.222,-0.955 -2.256,-1.202 l -1.467,-0.34 c -0.596,-0.13 -1.01,-0.32 -1.255,-0.56 -0.243,-0.246 -0.36,-0.57 -0.353,-0.973 0.01,-0.517 0.18,-0.927 0.534,-1.23 0.344,-0.305 0.822,-0.46 1.435,-0.468 0.443,0 0.89,0.07 1.34,0.212 0.443,0.14 0.922,0.34 1.44,0.6 l 0.698,-1.47 c -0.465,-0.275 -1,-0.5 -1.617,-0.67 a 7.76,7.76 0 0 0 -1.958,-0.26 c -1.238,0.02 -2.226,0.348 -2.962,0.988 -0.735,0.638 -1.11,1.487 -1.127,2.545 0,0.842 0.236,1.53 0.706,2.067 0.47,0.533 1.15,0.894 2.05,1.08 l 1.38,0.27 c 0.65,0.122 1.138,0.33 1.444,0.62 0.305,0.293 0.46,0.68 0.46,1.167 -0.014,0.56 -0.208,1 -0.585,1.33 -0.385,0.325 -0.887,0.49 -1.522,0.5 a 6.085,6.085 0 0 1 -1.89,-0.337 10.54,10.54 0 0 1 -1.755,-0.796 l -0.744,1.494 a 9.063,9.063 0 0 0 2.094,0.89 c 0.73,0.205 1.444,0.31 2.14,0.31 1.34,-0.015 2.414,-0.366 3.222,-1.052 0.808,-0.684 1.215,-1.6 1.238,-2.75 m 11.038,2.242 -1.02,-1.29 c -0.344,0.386 -0.713,0.68 -1.12,0.878 a 2.76,2.76 0 0 1 -1.23,0.3 2.266,2.266 0 0 1 -0.91,-0.18 2.102,2.102 0 0 1 -0.72,-0.5 c -0.3,-0.313 -0.518,-0.738 -0.675,-1.272 -0.157,-0.535 -0.235,-1.197 -0.235,-1.987 0,-0.78 0.047,-1.46 0.125,-2.03 0.094,-0.575 0.23,-1.05 0.424,-1.437 0.194,-0.388 0.468,-0.687 0.814,-0.9 a 2.23,2.23 0 0 1 1.175,-0.322 c 0.35,-0.002 0.68,0.06 0.983,0.196 0.306,0.134 0.635,0.363 1,0.686 l 1.082,-1.425 a 4.472,4.472 0 0 0 -1.404,-0.896 4.48,4.48 0 0 0 -1.67,-0.303 c -0.556,0.003 -1.08,0.1 -1.574,0.298 a 4.616,4.616 0 0 0 -1.37,0.857 c -0.55,0.474 -1,1.11 -1.357,1.907 -0.355,0.795 -0.535,1.827 -0.542,3.093 0,0.857 0.086,1.622 0.258,2.294 a 5.68,5.68 0 0 0 0.824,1.802 c 0.8,1.13 2.01,1.696 3.646,1.696 0.71,0.005 1.34,-0.107 1.88,-0.337 0.54,-0.23 1.073,-0.608 1.606,-1.136 m 11.703,1.244 v -8.08 a 7.975,7.975 0 0 0 -0.04,-1.104 3.322,3.322 0 0 0 -0.18,-0.73 c -0.19,-0.515 -0.54,-0.925 -1.06,-1.23 -0.518,-0.303 -1.113,-0.46 -1.795,-0.465 -0.415,-0.003 -0.83,0.06 -1.238,0.18 -0.4,0.122 -0.816,0.32 -1.232,0.59 a 8.17,8.17 0 0 0 -1.2,0.926 c 0.026,-0.294 0.04,-0.57 0.05,-0.824 0.016,-0.256 0.023,-0.485 0.023,-0.69 V 10.34 c 0,-0.552 -0.024,-1.043 -0.07,-1.473 a 8.79,8.79 0 0 0 -0.18,-1.152 l -2.11,0.43 c 0.08,0.325 0.142,0.682 0.19,1.07 0.037,0.386 0.06,0.823 0.06,1.306 v 13.787 h 2.11 V 16.16 a 5.38,5.38 0 0 1 1.465,-1.21 c 0.53,-0.29 1.042,-0.44 1.543,-0.443 0.276,0.003 0.526,0.047 0.745,0.13 0.228,0.082 0.393,0.182 0.502,0.3 0.11,0.124 0.203,0.32 0.273,0.588 0.07,0.267 0.102,0.6 0.11,0.995 v 7.784 h 2.03 m 13.653,-0.746 c -0.227,-0.195 -0.4,-0.49 -0.517,-0.89 -0.118,-0.397 -0.18,-0.885 -0.18,-1.464 v -8.532 l -2.063,0.408 v 8.147 c -0.25,0.51 -0.61,0.932 -1.08,1.267 -0.477,0.335 -0.97,0.508 -1.496,0.52 a 2.044,2.044 0 0 1 -1.31,-0.497 1.346,1.346 0 0 1 -0.414,-0.707 c -0.08,-0.293 -0.11,-0.72 -0.11,-1.285 v -7.9 l -2.06,0.407 v 8.06 c 0,0.406 0.022,0.77 0.06,1.085 0.04,0.318 0.11,0.59 0.213,0.816 0.243,0.525 0.635,0.94 1.16,1.238 0.533,0.3 1.16,0.458 1.896,0.46 0.697,0 1.332,-0.13 1.896,-0.4 0.558,-0.262 1.065,-0.673 1.52,-1.23 0.096,0.38 0.23,0.696 0.394,0.947 0.164,0.25 0.39,0.478 0.666,0.687 l 1.426,-1.13 m 7.24,0.722 -0.36,-1.29 a 0.846,0.846 0 0 1 -0.393,0.005 0.607,0.607 0 0 1 -0.312,-0.164 c -0.11,-0.084 -0.188,-0.238 -0.228,-0.463 -0.048,-0.226 -0.063,-0.63 -0.063,-1.212 V 10.954 c 0,-0.702 -0.008,-1.323 -0.023,-1.864 a 6.946,6.946 0 0 0 -0.18,-1.377 l -2.17,0.452 c 0.084,0.42 0.147,0.874 0.187,1.357 0.04,0.484 0.057,1.118 0.057,1.9 V 21.7 c 0,0.54 0.03,0.946 0.094,1.223 0.064,0.277 0.173,0.526 0.34,0.748 0.21,0.305 0.46,0.525 0.743,0.66 0.276,0.137 0.62,0.205 1.02,0.2 0.25,0 0.47,-0.02 0.675,-0.054 0.213,-0.043 0.42,-0.107 0.62,-0.193 m 9.47,-6.743 h -4.712 c 0,-1.04 0.195,-1.858 0.596,-2.45 0.39,-0.59 0.986,-0.89 1.78,-0.902 0.36,0.005 0.68,0.08 0.953,0.227 0.267,0.145 0.494,0.334 0.675,0.566 0.228,0.29 0.4,0.65 0.524,1.087 0.116,0.436 0.18,0.927 0.18,1.474 m 2.17,1.54 v -0.365 c -0.008,-1.278 -0.118,-2.29 -0.33,-3.037 -0.21,-0.747 -0.563,-1.364 -1.05,-1.85 -0.79,-0.815 -1.82,-1.223 -3.08,-1.223 -0.7,0 -1.332,0.126 -1.896,0.382 -0.564,0.257 -1.066,0.65 -1.52,1.18 a 5.176,5.176 0 0 0 -1.043,1.89 c -0.21,0.695 -0.32,1.528 -0.313,2.5 0.017,1.873 0.464,3.338 1.357,4.39 0.884,1.054 2.124,1.59 3.714,1.608 a 6.05,6.05 0 0 0 2.09,-0.36 c 0.66,-0.24 1.26,-0.603 1.82,-1.09 l -0.793,-1.243 a 4.3,4.3 0 0 1 -1.3,0.817 c -0.455,0.18 -0.95,0.27 -1.482,0.27 a 3.28,3.28 0 0 1 -1.49,-0.327 c -0.455,-0.23 -0.84,-0.58 -1.11,-1.01 -0.174,-0.27 -0.29,-0.594 -0.37,-0.97 a 7.148,7.148 0 0 1 -0.11,-1.29 v -0.273 h 6.907 m 11.62,5.228 V 8.712 h -2.22 v 15.592 h 2.22 m 8.48,0 -5.9,-8.35 5.696,-7.242 h -2.736 l -5.454,7.264 5.563,8.328 h 2.83 m 8.128,-5.567 -0.07,2.897 a 3.13,3.13 0 0 1 -1.026,1.086 2.52,2.52 0 0 1 -1.35,0.408 c -0.58,-0.005 -1.025,-0.177 -1.322,-0.518 -0.307,-0.34 -0.464,-0.825 -0.464,-1.452 -0.01,-0.364 0.04,-0.67 0.134,-0.918 a 2.29,2.29 0 0 1 0.455,-0.734 c 0.22,-0.26 0.58,-0.462 1.065,-0.602 0.487,-0.14 1.123,-0.21 1.9,-0.212 0.085,0 0.187,0.005 0.29,0.014 0.1,0.008 0.234,0.02 0.39,0.03 m 2.94,4.64 c -0.423,-0.253 -0.69,-0.583 -0.792,-0.987 -0.11,-0.41 -0.15,-0.99 -0.134,-1.75 0,-0.85 0.017,-1.66 0.04,-2.42 0.03,-0.772 0.046,-1.366 0.046,-1.796 0,-0.536 -0.008,-0.944 -0.047,-1.224 a 2.832,2.832 0 0 0 -0.18,-0.766 2.434,2.434 0 0 0 -1.185,-1.355 c -0.564,-0.3 -1.26,-0.456 -2.093,-0.456 -1.09,0.023 -2.02,0.193 -2.79,0.51 -0.76,0.316 -1.42,0.644 -1.967,0.984 l 0.948,1.493 a 7.056,7.056 0 0 1 1.647,-0.907 5.252,5.252 0 0 1 1.84,-0.382 c 0.77,0.01 1.263,0.218 1.482,0.62 0.21,0.404 0.313,0.944 0.282,1.62 v 0.748 a 6.718,6.718 0 0 0 -0.4,-0.016 l -0.395,-0.003 c -1.842,0.004 -3.26,0.347 -4.256,1.03 -0.995,0.68 -1.505,1.68 -1.51,3 0.005,1.09 0.335,1.913 0.984,2.476 0.644,0.564 1.536,0.846 2.68,0.85 0.65,-0.013 1.2,-0.116 1.64,-0.308 0.447,-0.193 0.79,-0.407 1.05,-0.64 0.25,-0.234 0.43,-0.42 0.524,-0.55 0.135,0.397 0.338,0.734 0.597,1.01 0.26,0.276 0.563,0.48 0.917,0.62 l 1.066,-1.404 m 9.392,-10.655 a 2.178,2.178 0 0 0 -0.706,-0.112 c -0.596,0 -1.145,0.164 -1.645,0.49 -0.512,0.326 -0.98,0.82 -1.44,1.475 v -0.203 c 0,-0.292 -0.04,-0.6 -0.11,-0.92 a 4.22,4.22 0 0 0 -0.272,-0.82 l -2.01,0.52 c 0.14,0.34 0.24,0.725 0.32,1.16 0.07,0.435 0.11,0.99 0.11,1.67 v 8.328 h 2.083 v -7.31 c 0.016,-0.64 0.25,-1.18 0.698,-1.62 0.455,-0.44 1,-0.67 1.653,-0.688 0.11,0 0.213,0.01 0.307,0.03 0.088,0.02 0.19,0.047 0.283,0.082 l 0.73,-2.083 m 6.068,11.562 -0.36,-1.29 a 0.847,0.847 0 0 1 -0.394,0.005 0.612,0.612 0 0 1 -0.314,-0.164 c -0.11,-0.084 -0.188,-0.238 -0.227,-0.463 -0.048,-0.226 -0.063,-0.63 -0.063,-1.212 V 10.953 c 0,-0.702 -0.01,-1.323 -0.022,-1.864 a 6.84,6.84 0 0 0 -0.18,-1.377 l -2.17,0.452 c 0.085,0.42 0.148,0.874 0.19,1.357 0.038,0.484 0.06,1.118 0.05,1.9 V 21.7 c 0,0.54 0.033,0.946 0.095,1.223 0.055,0.277 0.173,0.526 0.337,0.748 0.212,0.305 0.463,0.525 0.736,0.66 0.285,0.137 0.63,0.205 1.037,0.2 a 4,4 0 0 0 0.666,-0.054 c 0.204,-0.04 0.41,-0.104 0.62,-0.193 m 10.877,-3.46 a 2.918,2.918 0 0 0 -0.69,-1.968 c -0.47,-0.555 -1.22,-0.955 -2.254,-1.202 l -1.466,-0.34 c -0.596,-0.13 -1.012,-0.32 -1.256,-0.563 -0.24,-0.247 -0.358,-0.57 -0.35,-0.974 0,-0.517 0.18,-0.927 0.534,-1.23 0.345,-0.305 0.822,-0.46 1.434,-0.468 a 4.45,4.45 0 0 1 1.34,0.213 c 0.448,0.14 0.926,0.34 1.44,0.6 l 0.71,-1.47 c -0.47,-0.275 -1.01,-0.5 -1.624,-0.67 a 7.634,7.634 0 0 0 -1.96,-0.26 c -1.236,0.022 -2.225,0.348 -2.962,0.988 -0.735,0.638 -1.112,1.487 -1.127,2.545 0,0.843 0.235,1.53 0.705,2.068 0.47,0.535 1.153,0.896 2.055,1.08 l 1.38,0.27 c 0.65,0.124 1.137,0.33 1.44,0.62 0.307,0.295 0.464,0.68 0.464,1.17 -0.017,0.56 -0.213,1 -0.59,1.33 -0.384,0.327 -0.886,0.494 -1.52,0.5 a 6.09,6.09 0 0 1 -1.892,-0.335 10.558,10.558 0 0 1 -1.753,-0.796 l -0.745,1.493 a 9.05,9.05 0 0 0 2.094,0.888 7.826,7.826 0 0 0 2.14,0.31 c 1.34,-0.014 2.415,-0.365 3.223,-1.05 0.8,-0.685 1.215,-1.6 1.237,-2.75 m 9.338,-8.1 a 2.207,2.207 0 0 0 -0.697,-0.112 2.99,2.99 0 0 0 -1.652,0.492 c -0.505,0.325 -0.975,0.82 -1.43,1.474 v -0.203 c 0,-0.293 -0.04,-0.6 -0.117,-0.92 a 4.137,4.137 0 0 0 -0.267,-0.82 l -2.012,0.52 c 0.14,0.34 0.244,0.724 0.32,1.16 0.072,0.434 0.11,0.99 0.11,1.67 v 8.327 h 2.086 v -7.31 c 0.015,-0.64 0.25,-1.18 0.696,-1.62 0.45,-0.44 1,-0.67 1.656,-0.688 0.11,0 0.21,0.01 0.306,0.03 0.09,0.02 0.18,0.047 0.284,0.082 l 0.72,-2.08 m 11.722,10.84 c -0.228,-0.195 -0.4,-0.49 -0.526,-0.89 -0.117,-0.397 -0.18,-0.885 -0.18,-1.464 v -8.532 l -2.06,0.408 v 8.147 A 3.38,3.38 0 0 1 303.45,22.5 c -0.472,0.335 -0.972,0.508 -1.494,0.52 a 2.043,2.043 0 0 1 -0.73,-0.147 c -0.212,-0.082 -0.41,-0.2 -0.58,-0.35 a 1.38,1.38 0 0 1 -0.413,-0.71 c -0.07,-0.292 -0.11,-0.72 -0.1,-1.284 v -7.9 l -2.06,0.407 v 8.06 c 0,0.406 0.012,0.77 0.05,1.085 0.05,0.317 0.12,0.59 0.214,0.815 0.25,0.525 0.636,0.94 1.168,1.238 0.526,0.3 1.16,0.456 1.89,0.46 0.697,0 1.332,-0.13 1.897,-0.4 0.563,-0.264 1.073,-0.675 1.52,-1.23 0.103,0.38 0.228,0.694 0.4,0.945 0.164,0.25 0.384,0.478 0.666,0.687 l 1.427,-1.13 m 12.616,0.745 v -8.08 a 9.8,9.8 0 0 0 -0.046,-1.103 3.528,3.528 0 0 0 -0.18,-0.73 c -0.19,-0.515 -0.534,-0.925 -1.05,-1.23 -0.52,-0.303 -1.123,-0.46 -1.805,-0.465 a 4.195,4.195 0 0 0 -1.23,0.18 c -0.41,0.122 -0.824,0.32 -1.24,0.59 -0.21,0.137 -0.407,0.272 -0.58,0.402 -0.172,0.13 -0.376,0.306 -0.62,0.524 0.025,-0.295 0.04,-0.57 0.057,-0.825 0.008,-0.256 0.016,-0.485 0.016,-0.69 v -2.54 c 0,-0.55 -0.023,-1.042 -0.063,-1.472 A 9.95,9.95 0 0 0 312.99,7.72 l -2.1,0.43 c 0.08,0.325 0.14,0.682 0.18,1.07 0.05,0.386 0.064,0.823 0.064,1.306 v 13.786 h 2.11 V 16.16 c 0.446,-0.516 0.94,-0.92 1.473,-1.21 0.525,-0.29 1.043,-0.44 1.536,-0.443 0.275,0.003 0.525,0.047 0.753,0.13 0.22,0.082 0.384,0.182 0.494,0.3 0.11,0.124 0.203,0.32 0.274,0.588 0.07,0.267 0.11,0.6 0.11,0.995 v 7.784 h 2.04 m 10.91,-6.766 h -4.704 c 0,-1.04 0.197,-1.857 0.59,-2.448 0.4,-0.59 0.994,-0.89 1.786,-0.902 0.36,0.005 0.674,0.08 0.948,0.227 0.274,0.145 0.502,0.334 0.682,0.566 0.228,0.29 0.4,0.65 0.52,1.088 0.124,0.436 0.18,0.927 0.18,1.474 m 2.168,1.54 v -0.364 c 0,-1.278 -0.11,-2.29 -0.32,-3.037 -0.21,-0.747 -0.564,-1.364 -1.058,-1.85 -0.784,-0.815 -1.81,-1.223 -3.073,-1.223 -0.707,0 -1.334,0.126 -1.9,0.382 a 4.372,4.372 0 0 0 -1.52,1.18 5.353,5.353 0 0 0 -1.05,1.89 c -0.21,0.694 -0.313,1.527 -0.313,2.5 0.016,1.872 0.47,3.337 1.355,4.39 0.893,1.053 2.132,1.59 3.715,1.607 a 6.06,6.06 0 0 0 2.092,-0.36 5.735,5.735 0 0 0 1.826,-1.09 l -0.792,-1.243 a 4.25,4.25 0 0 1 -1.3,0.815 c -0.463,0.18 -0.957,0.27 -1.49,0.27 a 3.24,3.24 0 0 1 -1.48,-0.327 2.814,2.814 0 0 1 -1.12,-1.01 3.006,3.006 0 0 1 -0.36,-0.97 6.27,6.27 0 0 1 -0.11,-1.29 V 19.08 H 333"
         inkscape:connector-curvature="0" />
      <path
         id="path3798"
         d="m 120.25,67.837 v -6.683 h -1.505 v 6.24 c 0,1.233 -0.533,1.89 -1.63,1.89 -1.113,0 -1.615,-0.468 -1.615,-1.89 v -6.24 h -1.513 v 6.695 c 0,1.49 0.745,2.75 3.128,2.75 1.99,0 3.135,-1.06 3.135,-2.763 m 9.4,2.602 v -9.286 h -1.426 l 0.03,4.24 c 0,0.846 0.087,2.174 0.126,2.644 l -0.04,0.04 c -0.116,-0.43 -0.508,-1.53 -0.924,-2.39 l -2.202,-4.534 h -1.7 v 9.285 h 1.48 l -0.054,-4.495 c -0.008,-0.818 -0.024,-1.797 -0.087,-2.576 l 0.04,-0.04 c 0.164,0.55 0.666,1.712 1.152,2.75 l 2.02,4.36 h 1.583 m 3.312,-9.292 h 1.543 v 9.283 H 132.96 V 61.15 Z m 11.08,0 h -1.575 l -1.662,5.18 c -0.438,1.38 -0.548,1.943 -0.548,1.943 h -0.024 c 0,0 -0.1,-0.684 -0.47,-1.864 l -1.633,-5.26 h -1.646 l 3.05,9.322 h 1.394 l 3.12,-9.322 m 7.188,9.29 v -1.314 h -3.62 v -2.898 h 2.76 V 64.95 h -2.79 v -2.537 h 3.323 l 0.198,-1.26 h -5.02 v 9.284 h 5.15 m 5.063,-8.04 c 1.333,0 1.826,0.482 1.826,1.42 0,0.483 -0.157,0.872 -0.4,1.126 -0.275,0.28 -0.698,0.39 -1.48,0.39 h -0.77 V 62.4 h 0.823 m 3.88,8.04 -1.333,-2.228 c -0.47,-0.777 -1.074,-1.677 -1.396,-1.852 1.41,0 2.25,-1.22 2.25,-2.545 0,-1.45 -0.917,-2.656 -2.947,-2.656 h -2.76 v 9.282 h 1.48 v -4.01 c 0.28,0.014 0.415,0.107 0.587,0.28 0.494,0.51 0.917,1.155 1.544,2.296 l 0.784,1.434 h 1.787 m 8.2,-2.81 c 0,-1.396 -0.916,-2.254 -2.225,-2.644 l -1.073,-0.322 c -0.882,-0.268 -1.2,-0.563 -1.2,-1.14 0,-0.765 0.59,-1.26 1.478,-1.26 0.72,0 1.293,0.2 2.132,0.71 l 0.68,-1.088 c -0.8,-0.58 -1.834,-0.887 -2.87,-0.887 -1.817,0 -3.07,1.114 -3.07,2.75 0,0.538 0.132,0.98 0.383,1.356 0.337,0.52 0.925,0.87 1.748,1.113 l 0.97,0.283 c 0.928,0.27 1.35,0.697 1.35,1.38 0,0.928 -0.665,1.48 -1.78,1.48 -0.915,0 -1.636,-0.283 -2.443,-0.767 l -0.58,1.18 c 0.893,0.55 1.936,0.834 2.97,0.834 2.32,0 3.535,-1.436 3.535,-2.978 m 2.72,-6.48 h 1.546 v 9.285 H 171.1 v -9.286 0.002 z m 10.05,0 h -6.27 v 1.29 h 2.297 v 7.995 h 1.504 V 62.44 h 2.275 l 0.196,-1.288 m 8.39,0 h -1.756 l -1.388,2.938 c -0.235,0.51 -0.502,1.17 -0.502,1.17 0,0 -0.205,-0.603 -0.48,-1.194 l -1.363,-2.91 h -1.817 l 2.853,5.525 v 3.76 h 1.56 v -3.75 l 2.894,-5.544 m 8.87,8.274 c -1.545,0 -2.134,-1.328 -2.134,-3.717 0,-2.227 0.58,-3.488 2.095,-3.488 1.624,0 2.087,1.422 2.087,3.69 0,2.495 -0.697,3.515 -2.045,3.515 m 0.04,1.167 c 2.36,0 3.715,-1.88 3.715,-4.776 0,-2.708 -1.23,-4.788 -3.776,-4.788 -2.268,0 -3.78,1.72 -3.78,4.78 0,2.75 1.27,4.79 3.84,4.79 m 11.07,-9.442 h -4.79 v 9.287 h 1.507 V 66.18 h 2.525 v -1.246 h -2.523 V 62.41 h 3.104 l 0.18,-1.26 m 9.62,5.56 h -2.227 c 0.21,-0.616 1.136,-3.958 1.136,-3.958 h 0.02 c 0.068,0.36 0.978,3.758 1.072,3.958 m 2.72,3.73 -2.89,-9.298 h -1.74 l -2.972,9.297 h 1.56 l 0.735,-2.442 h 2.924 l 0.738,2.44 h 1.646 m 4.64,-8.038 c 0.588,0 0.98,0.16 1.254,0.455 0.25,0.27 0.37,0.658 0.37,1.168 0,1.1 -0.51,1.637 -1.624,1.637 h -1.176 V 62.4 h 1.176 m 3.284,1.53 c 0,-1.02 -0.44,-1.852 -1.237,-2.334 -0.503,-0.31 -0.988,-0.443 -2.306,-0.443 h -2.405 v 9.285 h 1.49 v -3.543 h 1.527 c 1.638,0 2.93,-1.14 2.93,-2.965 m 4.937,-1.53 c 0.586,0 0.98,0.16 1.26,0.455 0.244,0.27 0.36,0.658 0.36,1.168 0,1.1 -0.51,1.637 -1.62,1.637 h -1.177 V 62.4 h 1.175 m 3.283,1.53 c 0,-1.02 -0.445,-1.852 -1.238,-2.334 -0.502,-0.31 -0.987,-0.443 -2.304,-0.443 h -2.405 v 9.285 h 1.49 v -3.543 h 1.528 c 1.638,0 2.93,-1.14 2.93,-2.965 m 7.077,5.23 h -3.35 V 61.15 H 240.2 v 9.285 h 4.63 l 0.25,-1.275 m 2.07,-8.01 h 1.545 v 9.285 h -1.545 z m 9.97,9.29 v -1.315 h -3.63 v -2.898 h 2.77 v -1.274 h -2.79 v -2.536 h 3.32 l 0.196,-1.26 h -5.02 v 9.283 h 5.158 m 7.417,-4.46 c 0,2.104 -0.64,3.19 -2.24,3.19 h -0.995 v -6.8 h 0.957 c 0.815,0 1.285,0.215 1.7,0.805 0.47,0.657 0.58,1.61 0.58,2.804 m 1.67,-0.166 c 0,-1.45 -0.313,-2.563 -0.98,-3.354 -0.846,-0.992 -1.86,-1.313 -3.56,-1.313 h -1.88 v 9.283 h 2.233 c 1.687,0 2.478,-0.31 3.238,-1.3 0.614,-0.806 0.95,-1.907 0.95,-3.316 m 12.24,1.815 c 0,-1.4 -0.916,-2.257 -2.225,-2.647 l -1.074,-0.32 c -0.885,-0.27 -1.2,-0.564 -1.2,-1.14 0,-0.767 0.59,-1.26 1.475,-1.26 0.72,0 1.293,0.198 2.133,0.708 l 0.68,-1.086 c -0.8,-0.577 -1.833,-0.885 -2.87,-0.885 -1.815,0 -3.07,1.113 -3.07,2.75 0,0.537 0.134,0.978 0.384,1.355 0.34,0.522 0.928,0.87 1.75,1.113 l 0.97,0.284 c 0.927,0.27 1.35,0.697 1.35,1.38 0,0.928 -0.665,1.48 -1.778,1.48 -0.92,0 -1.642,-0.283 -2.446,-0.767 l -0.58,1.18 c 0.893,0.55 1.935,0.834 2.97,0.834 2.32,0 3.535,-1.438 3.535,-2.98 m 8.426,2.134 -0.706,-0.98 c -0.51,0.417 -0.98,0.59 -1.623,0.59 -0.878,0 -1.62,-0.428 -2.01,-1.312 -0.234,-0.52 -0.354,-1.164 -0.354,-2.304 0,-1.1 0.156,-1.88 0.47,-2.442 0.392,-0.71 1.034,-1.113 1.8,-1.113 0.566,0 1.06,0.16 1.546,0.523 l 0.696,-1.02 c -0.54,-0.455 -1.38,-0.725 -2.256,-0.725 -1.41,0 -2.65,0.805 -3.33,2.134 -0.408,0.777 -0.604,1.703 -0.604,2.818 0,1.34 0.354,2.47 1.035,3.313 0.707,0.874 1.66,1.343 2.87,1.343 0.964,0 1.764,-0.268 2.47,-0.818 m 2.236,-8.62 h 1.542 v 9.283 h -1.543 V 61.15 Z m 9.97,9.29 v -1.317 h -3.63 v -2.898 h 2.767 V 64.95 h -2.79 v -2.535 h 3.323 l 0.194,-1.26 h -5.02 v 9.284 h 5.157 m 8.837,0 V 61.15 H 306.5 l 0.023,4.24 c 0,0.844 0.095,2.174 0.134,2.643 l -0.04,0.04 a 16.74,16.74 0 0 0 -0.934,-2.388 l -2.193,-4.537 h -1.7 v 9.285 h 1.48 l -0.056,-4.496 c -0.018,-0.817 -0.033,-1.796 -0.096,-2.575 l 0.04,-0.04 c 0.17,0.55 0.665,1.715 1.15,2.75 l 2.03,4.36 h 1.583 m 8.963,-0.675 -0.705,-0.98 c -0.518,0.416 -0.988,0.59 -1.623,0.59 -0.878,0 -1.623,-0.428 -2.022,-1.312 -0.235,-0.523 -0.345,-1.166 -0.345,-2.307 0,-1.1 0.156,-1.88 0.47,-2.442 0.393,-0.71 1.028,-1.11 1.804,-1.11 0.563,0 1.057,0.16 1.542,0.52 l 0.69,-1.02 c -0.534,-0.453 -1.373,-0.723 -2.25,-0.723 -1.41,0 -2.657,0.805 -3.33,2.133 -0.41,0.78 -0.605,1.705 -0.605,2.818 0,1.34 0.353,2.47 1.034,3.314 0.705,0.873 1.662,1.343 2.86,1.343 0.973,0 1.77,-0.27 2.477,-0.817 m 7.38,0.67 V 69.12 h -3.62 v -2.897 h 2.76 V 64.95 h -2.784 v -2.537 h 3.322 l 0.196,-1.26 h -5.02 v 9.284 h 5.15 m 8.445,-2.81 c 0,-1.396 -0.917,-2.254 -2.218,-2.645 l -1.074,-0.32 c -0.895,-0.268 -1.208,-0.56 -1.208,-1.14 0,-0.765 0.59,-1.26 1.483,-1.26 0.72,0 1.293,0.198 2.13,0.708 l 0.683,-1.084 C 331.706,61.308 330.672,61 329.639,61 c -1.82,0 -3.075,1.112 -3.075,2.75 0,0.536 0.127,0.98 0.377,1.354 0.346,0.522 0.934,0.87 1.757,1.113 l 0.962,0.284 c 0.935,0.27 1.35,0.698 1.35,1.38 0,0.93 -0.667,1.48 -1.78,1.48 -0.916,0 -1.63,-0.282 -2.444,-0.766 l -0.573,1.18 a 5.674,5.674 0 0 0 2.97,0.834 c 2.313,0 3.527,-1.437 3.527,-2.98 M 40.624,94.89 l 48.18,-12.437 -13.25,-49.08 23.502,44.825 -60.79,35.826 2.367,-19.13 m 59.34,-16.436 -25.17,-48.03 c -5.08,0.297 -17.12,-1.62 -24.907,-10.583 l -7.9,64.05 32.807,0.007 V 33.147 l 13.18,48.822 -47.26,12.2 1.264,-10.277 h -0.683 l -1.29,10.457 -22.496,5.807 5.502,-16.264 -0.724,0.007 -5.83,17.236 23.456,-6.06 -2.5,20.235 62.55,-36.86"
         inkscape:connector-curvature="0"
         style="fill:#db0031" />
      <path
         id="path3800"
         d="m 23.01,83.89 h 18.282 l 8.07,-65.75 c 0.542,0.63 6.685,9.122 19.575,11.23 C 60.655,26.42 51.623,18.23 48.247,8.89 l -25.24,74.99"
         inkscape:connector-curvature="0"
         style="fill:#db0031" />
      <path
         id="path3802"
         d="M 22.29,83.89 H 0 L 51.11,0 c -0.053,12.05 7.395,19.382 7.98,20.22 0.69,0.588 4.518,5.48 13.747,9.42 -2.302,-0.447 -8.235,-1.274 -16.312,-9.436 -2.55,-2.468 -6.696,-7.51 -8.272,-13.506 l -25.967,77.19"
         inkscape:connector-curvature="0"
         style="fill:#db0031" />
    </g>
    <text
       xml:space="preserve"
       style="font-style:normal;font-variant:normal;font-weight:bold;font-stretch:normal;font-size:9.87777805px;line-height:1.25;font-family:sans-serif;-inkscape-font-specification:'sans-serif, Bold';font-variant-ligatures:normal;font-variant-caps:normal;font-variant-numeric:normal;font-feature-settings:normal;text-align:center;letter-spacing:0px;word-spacing:0px;writing-mode:lr-tb;text-anchor:middle;fill:#fffffa;fill-opacity:1;stroke:none;stroke-width:0.26458332"
       x="61.076763"
       y="250.51906"
       id="text15"><tspan
         sodipodi:role="line"
         id="tspan13"
         x="61.076763"
         y="250.51906"
         style="font-style:normal;font-variant:normal;font-weight:bold;font-stretch:normal;font-size:9.87777805px;font-family:sans-serif;-inkscape-font-specification:'sans-serif, Bold';font-variant-ligatures:normal;font-variant-caps:normal;font-variant-numeric:normal;font-feature-settings:normal;text-align:center;writing-mode:lr-tb;text-anchor:middle;fill:#fffffa;fill-opacity:1;stroke-width:0.26458332">Doorbell</tspan><tspan
         sodipodi:role="line"
         x="61.076763"
         y="262.86627"
         style="font-style:normal;font-variant:normal;font-weight:bold;font-stretch:normal;font-size:9.87777805px;font-family:sans-serif;-inkscape-font-specification:'sans-serif, Bold';font-variant-ligatures:normal;font-variant-caps:normal;font-variant-numeric:normal;font-feature-settings:normal;text-align:center;writing-mode:lr-tb;text-anchor:middle;fill:#fffffa;fill-opacity:1;stroke-width:0.26458332"
         id="tspan825">Client</tspan></text>
  </g>
</svg>
